<svg width="18" height="15" viewBox="0 0 18 15" fill="none" xmlns="http://www.w3.org/2000/svg">
<path d="M17.5481 12.3045L14.2592 9.6492C14.1107 9.52935 13.9095 9.46277 13.6984 9.46277H13.1607C14.0712 8.52264 14.6122 7.34015 14.6122 6.05379C14.6122 2.99369 11.5409 0.514191 7.75054 0.514191C3.96015 0.514191 0.888916 2.99369 0.888916 6.05379C0.888916 9.11388 3.96015 11.5934 7.75054 11.5934C9.34389 11.5934 10.8086 11.1566 11.9731 10.4215V10.8557C11.9731 11.0261 12.0555 11.1886 12.204 11.3084L15.493 13.9637C15.8031 14.214 16.3045 14.214 16.6113 13.9637L17.5448 13.21C17.8549 12.9596 17.8549 12.5548 17.5481 12.3045ZM7.75054 9.46277C5.41825 9.46277 3.528 7.93938 3.528 6.05379C3.528 4.17086 5.41495 2.6448 7.75054 2.6448C10.0828 2.6448 11.9731 4.16819 11.9731 6.05379C11.9731 7.93672 10.0861 9.46277 7.75054 9.46277Z" fill="black"/>
</svg>
